<?xml version="1.0" encoding="UTF-8" standalone="no"?>
<!-- Created with Inkscape (http://www.inkscape.org/) -->

<svg
   width="25298.721"
   height="25298.721"
   viewBox="0 0 6693.6197 6693.62"
   version="1.1"
   id="svg1"
   inkscape:version="1.3 (0e150ed6c4, 2023-07-21)"
   sodipodi:docname="logo.svg"
   xmlns:inkscape="http://www.inkscape.org/namespaces/inkscape"
   xmlns:sodipodi="http://sodipodi.sourceforge.net/DTD/sodipodi-0.dtd"
   xmlns:xlink="http://www.w3.org/1999/xlink"
   xmlns="http://www.w3.org/2000/svg"
   xmlns:svg="http://www.w3.org/2000/svg">
  <sodipodi:namedview
     id="namedview1"
     pagecolor="#ffffff"
     bordercolor="#666666"
     borderopacity="1.0"
     inkscape:showpageshadow="2"
     inkscape:pageopacity="0.0"
     inkscape:pagecheckerboard="0"
     inkscape:deskcolor="#d1d1d1"
     inkscape:document-units="mm"
     inkscape:zoom="0.023090805"
     inkscape:cx="19293.394"
     inkscape:cy="15872.119"
     inkscape:window-width="2560"
     inkscape:window-height="1369"
     inkscape:window-x="-8"
     inkscape:window-y="-8"
     inkscape:window-maximized="1"
     inkscape:current-layer="layer1"
     showguides="true" />
  <defs
     id="defs1">
    <radialGradient
       inkscape:collect="always"
       xlink:href="#linearGradient65"
       id="radialGradient66"
       cx="133.19756"
       cy="123.72985"
       fx="133.19756"
       fy="123.72985"
       r="30.027025"
       gradientTransform="matrix(1,0,0,0.93031338,-8.4250687,12.309635)"
       gradientUnits="userSpaceOnUse"
       spreadMethod="pad" />
    <linearGradient
       id="linearGradient65"
       inkscape:collect="always">
      <stop
         style="stop-color:#1d6a96;stop-opacity:0;"
         offset="0"
         id="stop66" />
      <stop
         style="stop-color:#1d6a96;stop-opacity:1;"
         offset="1"
         id="stop65" />
    </linearGradient>
  </defs>
  <g
     inkscape:label="Capa 1"
     inkscape:groupmode="layer"
     id="layer1"
     transform="translate(-87.577076,-86.254127)">
    <g
       id="g1"
       transform="matrix(80.63047,0,0,80.63047,-6630.1844,-6461.1778)">
      <rect
         style="fill:#000000;fill-opacity:1;stroke-width:0.440497;stroke-linecap:round;stroke-linejoin:round;paint-order:stroke fill markers"
         id="rect1"
         width="51.55769"
         height="51.55769"
         x="149.25555"
         y="-27.273748"
         transform="rotate(45)" />
      <rect
         style="fill:#a7e4ff;fill-opacity:1;stroke-width:0.412114;stroke-linecap:round;stroke-linejoin:round;paint-order:stroke fill markers"
         id="rect51"
         width="48.235588"
         height="48.235588"
         x="150.9166"
         y="-25.612696"
         transform="rotate(45)" />
      <path
         id="path5"
         style="mix-blend-mode:normal;fill:url(#radialGradient66);fill-opacity:1;stroke:#000000;stroke-width:0.1;stroke-linecap:butt;stroke-linejoin:miter;stroke-dasharray:none;stroke-opacity:1"
         d="m 125.60499,99.532633 c -0.25007,6.05e-4 -0.50089,0.02345 -0.74827,0.06563 v 0.967897 c -0.27184,0.0464 -0.53938,0.11756 -0.79737,0.21394 v -0.967897 c -0.25184,0.09406 -0.49526,0.210957 -0.72347,0.352437 v 0.96841 c -0.16235,0.1007 -0.31659,0.21439 -0.4625,0.339 v -0.96842 c -0.12859,0.10977 -0.25069,0.22777 -0.36381,0.35605 v 0.58188 0.15658 0.22944 0.66043 11.21327 h -0.3483 v -8.49974 h -0.076 -0.52917 -0.38912 v 0.53692 h -1.89394 v -0.53692 h -1.37666 v 0.53692 h -0.78342 v -0.53692 h -1.37666 v 0.53692 h -0.78337 v -0.53692 h -0.62167 -0.75499 v 0.53692 h -0.78342 v -0.53692 h -1.37666 v 0.53692 0.14004 0.91209 0.005 0.33538 6.57014 h -1.62987 l -7.24762,7.24762 h -3.346569 l -4.37596,4.37596 29.956309,29.95631 29.95632,-29.95631 -4.37596,-4.37596 h -3.34657 l -7.24762,-7.24762 v -1.03818 -0.11938 -0.47335 -0.47284 l -0.97048,-0.0646 v 0.48525 l -0.50747,-0.0274 v -0.49196 l -1.04851,-0.0698 v 0.50488 l -0.5488,-0.0294 v -0.5116 l -1.13585,-0.0754 v 0.52555 l -0.59635,-0.0326 v -0.53279 l -1.23507,-0.0822 v 0.54828 0.54829 1.40922 h -0.18965 v -0.53434 -3.90674 -0.7028 l -1.0449,-0.11472 v 0.71831 l -0.45475,-0.0429 v -0.71778 l -1.38183,-0.1509 v 0.73743 l -0.48989,-0.0465 v -0.75293 l -1.20148,-0.13177 v 0.77101 0.58911 4.17132 0.11007 0.004 h -0.34829 V 101.979 h 5.1e-4 v -0.38086 -0.73846 c -0.11154,-0.13947 -0.2335,-0.26813 -0.36432,-0.3855 v 0.971 c -0.10642,-0.0956 -0.21859,-0.18407 -0.33589,-0.2651 v -0.9679 c -0.22506,-0.1554 -0.46797,-0.284167 -0.72399,-0.386024 v 0.967894 c -0.25536,-0.10163 -0.52308,-0.17672 -0.79737,-0.2253 v -0.967904 c -0.25585,-0.0453 -0.51697,-0.06883 -0.77928,-0.06821 z m 0.94775,2.455667 h 0.30851 v 0.80667 h -0.30851 z m 0,3.34656 h 0.30851 v 0.80719 h -0.30851 z m -15.3262,0.4036 -0.38912,0.29662 v 0.46974 l -0.20877,0.14934 v -0.45992 l -0.34675,0.26407 v 0.4439 l -0.18656,0.13332 v -0.43511 l -0.31057,0.23668 v 0.42064 l 5.2e-4,0.11007 v 0.46664 0.24753 0.004 0.22169 l 10e-4,5.38675 h 1.44022 v -6.44509 -0.062 -0.005 -0.24701 -0.58188 -0.12712 z m 1.56631,0.14004 h 0.78342 v 0.91209 0.005 h -0.78342 v -0.005 z m 2.16008,0 h 0.78341 v 0.91209 0.005 h -0.78341 v -0.005 z m 2.16007,0 h 0.78342 v 0.91209 0.005 H 117.113 Z m -6.27558,0.74879 v 0.5333 0.18862 0.0765 0.005 l -0.20877,0.13023 v -0.005 -0.18036 -0.60099 z m -0.55552,0.39067 5.1e-4,0.56483 v 0.18913 0.004 l -0.18655,0.11627 v -0.004 -0.23202 l -5.2e-4,-0.50695 z m 5.42292,1.26349 h 0.53795 v 1.09193 h -0.53795 z m -2.18385,2.34973 h 0.53796 v 1.09192 h -0.53796 z" />
      <path
         style="fill:#000000;stroke:#ffffff;stroke-width:0.1;stroke-dasharray:none;stroke-opacity:1"
         d="m 129.72939,130.05739 c -0.15997,-0.32742 -0.43373,-1.07156 -0.60836,-1.65364 -0.17462,-0.58209 -0.44857,-1.22276 -0.60876,-1.42373 -0.22704,-0.28481 -0.058,-0.57658 0.76636,-1.32292 l 1.05764,-0.95752 -0.61879,-0.65823 c -0.34034,-0.36203 -0.68404,-0.98444 -0.76378,-1.38313 -0.17798,-0.88991 -0.66696,-1.32914 -1.23641,-1.11062 -0.28843,0.11068 -0.38033,0.35647 -0.28111,0.7518 0.0951,0.37892 -0.0175,0.72124 -0.31725,0.9646 -0.25557,0.20749 -0.38191,0.23916 -0.28074,0.0704 0.10117,-0.16876 0.11012,-0.49923 0.0199,-0.73435 -0.13557,-0.35331 -0.23617,-0.36893 -0.57956,-0.09 -0.35146,0.28546 -0.38956,0.26818 -0.24716,-0.11206 0.11611,-0.31003 0.0577,-0.40707 -0.18828,-0.31269 -0.19615,0.0753 -0.44661,-0.009 -0.55658,-0.18665 -0.11581,-0.18739 -0.09,-0.25553 0.0614,-0.16197 0.14949,0.0924 0.26137,-0.17179 0.26137,-0.61716 0,-0.42828 0.19844,-0.99797 0.44097,-1.26596 0.24254,-0.268 0.44098,-0.81708 0.44098,-1.22018 0,-1.10097 1.36789,-2.26813 2.6582,-2.26813 0.5581,0 1.08396,0.11201 1.16857,0.24891 0.0907,0.14678 -0.21283,0.18941 -0.73985,0.10388 -0.75092,-0.12186 -0.91698,-0.0559 -1.03949,0.41255 -0.0802,0.30666 -0.2906,0.55757 -0.46756,0.55757 -0.23631,0 -0.22532,-0.11888 0.0414,-0.44766 0.21037,-0.25935 0.23105,-0.36844 0.0491,-0.25933 -0.46313,0.27781 -1.13464,1.73817 -0.87348,1.89958 0.12367,0.0764 0.29963,0.018 0.39104,-0.12994 0.26658,-0.43134 0.93146,-0.31936 0.7598,0.12798 -0.0838,0.21828 -0.33799,0.39687 -0.56496,0.39687 -0.22696,0 -0.33311,0.0796 -0.23587,0.17679 0.0972,0.0972 0.45226,0.0293 0.78896,-0.15084 0.52457,-0.28074 0.78738,-0.23447 1.83657,0.32339 0.67342,0.35806 1.17252,0.7029 1.10911,0.76631 -0.0634,0.0634 0.76476,0.39129 1.84036,0.72861 1.70757,0.53552 2.10817,0.57492 3.15798,0.31058 0.66128,-0.16652 1.49995,-0.30275 1.86371,-0.30275 0.58676,0 0.67055,-0.12454 0.74273,-1.10392 0.0447,-0.60715 0.23075,-1.15305 0.41334,-1.21309 0.24044,-0.0791 0.2972,0.1625 0.20585,0.87602 -0.0694,0.54185 -0.19009,1.04915 -0.26826,1.12731 -0.0782,0.0782 0.12273,0.42404 0.44643,0.76861 0.44251,0.47102 0.63047,1.08384 0.75749,2.4696 0.10466,1.14183 0.33543,2.02707 0.6065,2.32661 0.29488,0.32584 0.38749,0.7348 0.28401,1.2542 -0.0844,0.42388 -0.007,1.12788 0.17094,1.56445 0.49744,1.2168 0.49896,1.45521 0.009,1.45521 -0.33094,0 -0.46895,-0.2565 -0.5163,-0.95958 -0.0703,-1.04317 -0.57809,-2.2001 -1.18788,-2.70618 -0.31882,-0.2646 -0.43622,-0.17438 -0.6789,0.52177 -0.16138,0.46293 -0.2972,1.15135 -0.30183,1.52982 -0.01,0.79016 -0.61695,1.71439 -1.03493,1.57506 -0.17474,-0.0582 -0.0692,-0.49361 0.27578,-1.13719 0.6538,-1.21985 0.56737,-2.77787 -0.2022,-3.64524 -0.48049,-0.54155 -0.4787,-0.54371 0.17601,-0.21166 0.91039,0.46172 0.34632,-0.046 -0.83488,-0.75141 -0.91496,-0.54645 -0.99175,-0.55305 -1.42259,-0.12221 -0.25048,0.25048 -0.90017,0.47813 -1.44376,0.50588 -0.54359,0.0278 -1.25778,0.13598 -1.5871,0.2405 -0.46053,0.14617 -0.55161,0.10714 -0.39453,-0.16903 0.13253,-0.23299 0.11503,-0.26617 -0.0498,-0.0945 -0.40326,0.41995 -1.11803,3.10903 -1.01974,3.83646 0.0492,0.3638 0.17255,0.86981 0.27421,1.12447 0.1545,0.38703 0.0356,0.46303 -0.7248,0.46303 -0.68076,0 -0.98283,-0.14979 -1.2005,-0.59532 z m 1.52436,0.0882 c 0,-0.1334 -0.12044,-0.28268 -0.26764,-0.33175 -0.17916,-0.0597 -0.17315,-0.60039 0.0182,-1.63545 0.15721,-0.85043 0.21997,-1.6121 0.13946,-1.69261 -0.0805,-0.0805 0.0601,-0.30406 0.31253,-0.49679 0.29625,-0.22621 0.0504,-0.19393 -0.69348,0.0911 -0.63382,0.24282 -1.21915,0.61546 -1.30074,0.82808 -0.17419,0.45393 0.37015,2.64549 0.77964,3.13889 0.32537,0.39204 1.01203,0.45891 1.01203,0.0986 z m -4.23334,-10.39742 c 0,-0.37247 -0.49351,0.0235 -0.83082,0.66667 -0.30239,0.57654 -0.30057,0.57707 0.26316,0.0765 0.31221,-0.27722 0.56766,-0.61167 0.56766,-0.74322 z m 2.4474,-2.26635 c -0.32742,-0.0523 -0.59531,-0.21389 -0.59531,-0.3591 0,-0.15162 0.25343,-0.18611 0.59531,-0.081 1.03688,0.31872 1.03688,0.60572 0,0.44012 z"
         id="path49" />
      <path
         id="path50"
         style="fill:#289d42;fill-opacity:1;stroke:#000000;stroke-width:0.1;stroke-linecap:butt;stroke-linejoin:miter;stroke-dasharray:none;stroke-opacity:1"
         d="m 115.45006,112.78299 -0.62787,1.09915 c -0.57994,1.01484 -0.69409,1.08661 -1.48828,0.93948 -0.8387,-0.15538 -0.8599,-0.13634 -0.8599,0.78032 0,0.51693 -0.13717,1.02515 -0.30541,1.12913 -0.21796,0.13468 -0.25951,-0.045 -0.14366,-0.62426 0.11891,-0.59454 0.0183,-0.99649 -0.37465,-1.49603 -0.83045,-1.05575 -1.47489,-0.89741 -1.69706,0.41755 -0.12548,0.74271 -0.43443,1.31033 -0.94929,1.74356 -1.0373,0.87281 -0.98838,1.59139 0.0966,1.42007 0.10913,-0.0172 0.19844,0.0881 0.19844,0.23358 0,0.14553 0.15892,0.26458 0.35295,0.26458 0.19403,0 0.35295,0.18647 0.35295,0.41444 0,0.29964 -0.16769,0.37231 -0.60513,0.26252 -0.5228,-0.13121 -0.628,-0.0279 -0.77566,0.75913 -0.0937,0.50095 -0.0967,1.03024 -0.006,1.17667 0.0972,0.15721 -0.12623,0.24591 -0.54571,0.21601 -0.5473,-0.039 -0.8277,0.1459 -1.22008,0.80667 l -0.50901,0.85783 0.74982,0.28525 c 0.41248,0.1568 1.01837,0.23375 1.34617,0.17105 0.55935,-0.10692 0.77021,0.29725 0.62736,1.20199 -0.0458,0.29027 0.165,0.2468 1.06298,-0.21756 0.73305,-0.37947 0.83136,-0.37846 1.11414,0.008 0.25849,0.3535 0.45274,0.37419 1.16738,0.12506 0.47151,-0.16437 0.85731,-0.46568 0.85731,-0.66973 0,-0.20404 0.11906,-0.37103 0.26458,-0.37103 0.14552,0 0.26672,0.14883 0.26872,0.33073 0.003,0.23504 0.0722,0.22309 0.23926,-0.0408 0.17706,-0.27963 0.24358,-0.21432 0.27078,0.26458 0.0199,0.34972 0.0994,1.66974 0.17674,2.93316 0.082,1.33938 0.0286,2.50634 -0.12816,2.79931 v 0.001 c -0.0309,0.0577 -0.057,0.10901 -0.0755,0.15452 H 99.990531 l -0.96531,0.96531 25.747259,25.74675 25.74675,-25.74675 -0.96531,-0.96531 h -24.78144 -8.01759 c -0.0106,-0.0207 -0.0179,-0.0373 -0.03,-0.06 -0.4183,-0.78161 -0.34455,-4.13181 0.11524,-5.23224 0.47416,-1.13484 0.48485,-1.23515 0.10594,-1.00097 -0.45303,0.27999 0.15991,-0.73403 0.7338,-1.21388 0.55754,-0.46615 0.704,-0.52245 1.36323,-0.52245 0.43843,0 0.4585,-0.12037 0.21756,-1.29656 -0.14609,-0.71314 -0.39319,-1.26843 -0.54932,-1.23403 -0.1562,0.0344 -0.19376,0.0127 -0.0837,-0.0486 0.1101,-0.0613 0.12714,-0.22926 0.0382,-0.3731 -0.0889,-0.14379 0.0772,-0.11244 0.36897,0.0698 0.29175,0.1822 0.46972,0.48969 0.39532,0.68368 -0.0911,0.23732 0.004,0.29923 0.29094,0.18914 0.33413,-0.12822 0.42633,0.01 0.42633,0.63665 0,0.44 -0.14883,0.86828 -0.33073,0.95188 -0.1819,0.0836 -0.0926,0.096 0.19844,0.0279 0.29104,-0.0681 0.70776,-0.003 0.92604,0.14572 0.35278,0.2396 0.35278,0.26508 0,0.22738 -0.21828,-0.0233 -0.61997,-0.028 -0.89245,-0.0109 -0.40962,0.0259 -0.43822,0.10024 -0.16588,0.42839 0.22757,0.2742 0.23774,0.39688 0.0326,0.39688 -0.16334,0 -0.29714,-0.11906 -0.29714,-0.26458 0,-0.14552 -0.18999,-0.26459 -0.4222,-0.26459 -0.52437,0 -1.95905,0.82795 -1.95905,1.13068 0,0.1227 0.11906,0.14933 0.26458,0.0594 0.14552,-0.0899 0.26458,0.0855 0.26458,0.38964 0,0.5811 0.25262,0.74996 1.29346,0.86403 0.3799,0.0416 0.67836,-0.0892 0.74776,-0.32763 0.0986,-0.33895 0.0771,-0.34097 -0.14883,-0.0165 -0.22988,0.33009 -0.32469,0.33009 -0.72243,0 -0.25174,-0.20893 -0.52867,-0.34878 -0.61547,-0.31058 -0.0868,0.0382 -0.17128,-0.1672 -0.18758,-0.4563 -0.0163,-0.28911 0.068,-0.46531 0.18707,-0.39171 0.1191,0.0736 0.1594,0.28323 0.0894,0.46561 -0.0732,0.19075 0.0948,0.34843 0.39532,0.37103 0.45254,0.0341 0.48828,-0.0499 0.26872,-0.62735 -0.19169,-0.50412 -0.17206,-0.63835 0.0796,-0.55035 0.18303,0.064 0.30488,0.28256 0.27078,0.48575 -0.036,0.21442 0.40905,0.56326 1.06092,0.832 1.45412,0.59949 1.51464,0.59086 1.51464,-0.22635 0,-0.53278 0.0995,-0.65152 0.43718,-0.52193 0.24049,0.0923 0.83656,0.0356 1.32498,-0.12557 l 0.88832,-0.29301 -0.45165,-0.76429 c -0.50718,-0.85907 -0.81797,-0.86711 -0.35915,-0.01 0.16241,0.30351 0.18498,0.5519 0.0501,0.5519 -0.13487,0 -0.32296,-0.31031 -0.41806,-0.68936 -0.13069,-0.52073 -0.29964,-0.65616 -0.6904,-0.55397 -0.28443,0.0744 -0.51676,0.0201 -0.51676,-0.12041 0,-0.14051 -0.11103,-0.18653 -0.2465,-0.10283 -0.13546,0.0837 -0.32097,0.0311 -0.41237,-0.11679 -0.0914,-0.1479 0.0191,-0.26872 0.24598,-0.26872 0.30666,0 0.40352,-0.25453 0.37672,-0.99219 -0.0223,-0.61507 -0.0798,-0.76618 -0.1509,-0.39687 -0.10632,0.55214 -0.14619,0.56436 -0.54829,0.16226 -0.43648,-0.43648 -0.76418,-1.55962 -0.38705,-1.32653 0.11119,0.0687 0.41912,-0.0336 0.68419,-0.22738 0.46148,-0.33747 0.45841,-0.36512 -0.0692,-0.64751 -0.58029,-0.31055 -0.74665,-0.80511 -0.27079,-0.80511 0.15409,0 0.21736,0.10158 0.14056,0.22582 -0.0768,0.12424 0.15443,0.3598 0.51367,0.52348 0.35924,0.16367 0.65319,0.22018 0.65319,0.12558 0,-0.31209 -0.86991,-1.13947 -1.19786,-1.13947 -0.18635,0 -0.3955,-0.55678 -0.49713,-1.32291 -0.0965,-0.7276 -0.24231,-1.32292 -0.32401,-1.32292 -0.0817,0 -0.50024,0.20749 -0.93018,0.46147 -0.65828,0.38887 -0.76918,0.6044 -0.70228,1.36426 0.0482,0.54721 -0.0506,0.94684 -0.25115,1.01544 -0.21121,0.0723 -0.33708,-0.15791 -0.34778,-0.63665 l -0.0165,-0.74931 -0.25631,0.64027 c -0.17284,0.43238 -0.16434,0.6974 0.0258,0.81494 0.29495,0.18229 0.0858,1.05833 -0.2527,1.05833 -0.1074,0 -0.41099,-0.23813 -0.67438,-0.52917 -0.46297,-0.51155 -0.46191,-0.53015 0.0253,-0.55035 0.27932,-0.0116 0.3564,-0.0806 0.17312,-0.15451 -0.1819,-0.0734 -0.33073,-0.23859 -0.33073,-0.36742 0,-0.1288 0.1835,-0.16413 0.40773,-0.078 0.22423,0.0861 0.38907,0.0526 0.36587,-0.0744 -0.11024,-0.60386 0.0473,-1.17097 0.28473,-1.02423 0.14552,0.0899 0.26459,0.032 0.26459,-0.12867 0,-0.18908 -0.31766,-0.23279 -0.90021,-0.12351 -0.73021,0.13699 -0.93082,0.0767 -1.06246,-0.31884 -0.0893,-0.26821 -0.38404,-0.77499 -0.65474,-1.12603 z m 0.12299,0.63303 0.36018,0.71882 c 0.19829,0.39513 0.39692,0.7862 0.44132,0.8692 0.0444,0.0829 -0.14492,0.41115 -0.42117,0.72967 l -0.50229,0.57929 v -0.69194 c 0,-0.41658 0.079,-0.56431 0.19844,-0.37104 0.14776,0.23913 0.24645,0.24322 0.38654,0.0165 0.10348,-0.16743 0.0421,-0.48049 -0.13643,-0.69557 -0.28195,-0.33974 -0.3739,-0.32045 -0.6997,0.1447 -0.20628,0.29446 -0.29116,0.68393 -0.18862,0.86558 0.13958,0.24721 0.10583,0.25565 -0.13539,0.0336 -0.25136,-0.23139 -0.21004,-0.50558 0.18759,-1.24746 z m 4.91132,1.04025 c 0.13687,0 0.18604,0.16377 0.10904,0.36432 -0.077,0.20055 -0.0167,0.48815 0.13384,0.63872 0.30371,0.30372 0.039,0.93556 -0.30334,0.72399 -0.25137,-0.15536 -0.94838,0.59932 -0.7431,0.8046 0.0758,0.0758 -0.21437,0.48981 -0.64441,0.91984 -0.87616,0.87616 -1.35159,1.07353 -0.60875,0.2527 0.26339,-0.29104 0.40071,-0.52917 0.30541,-0.52917 -0.0953,0 0.0352,-0.22387 0.2899,-0.49764 1.05691,-1.1362 1.37659,-1.71242 1.12087,-2.02055 -0.26594,-0.32043 -0.0916,-0.65681 0.34054,-0.65681 z m -9.89086,0.0145 c 0.3169,0.0143 1.08406,0.58783 1.06866,0.85473 -0.0487,0.84186 -0.3723,1.12199 -0.98495,0.85266 -0.47981,-0.21095 -0.57253,-0.40495 -0.44183,-0.92759 0.0909,-0.36351 0.20523,-0.70081 0.25373,-0.74931 0.0233,-0.0233 0.0591,-0.0325 0.10439,-0.0305 z m 0.48007,0.61236 c -0.0761,-0.008 -0.15779,0.0327 -0.24598,0.12093 -0.1456,0.14552 -0.17847,0.40428 -0.0729,0.57516 0.12801,0.20712 0.28043,0.22238 0.45682,0.046 0.1456,-0.14552 0.17795,-0.40428 0.0723,-0.57516 -0.064,-0.10356 -0.13422,-0.15923 -0.21032,-0.16692 z m 1.87689,0.0165 c 0.0183,10e-4 0.0374,0.008 0.0574,0.0207 0.14791,0.0914 0.19725,0.28243 0.10955,0.42427 -0.0877,0.14183 -0.0152,0.43094 0.16072,0.64285 0.25761,0.31038 0.23628,0.38551 -0.10956,0.38551 -0.30242,0 -0.42943,-0.23907 -0.42943,-0.80926 0,-0.42076 0.0834,-0.67363 0.21136,-0.66404 z m 0.90744,0.15038 c 0.15487,0 0.12938,0.16811 -0.0605,0.39687 -0.18116,0.21828 -0.37076,0.39688 -0.42116,0.39688 -0.0504,0 -0.0228,-0.1786 0.061,-0.39688 0.0838,-0.21828 0.27288,-0.39687 0.42065,-0.39687 z m 3.6592,0 c 0.15408,0 0.20669,0.11906 0.11679,0.26458 -0.0899,0.14552 -0.21588,0.26459 -0.28008,0.26459 -0.0642,0 -0.11679,-0.11907 -0.11679,-0.26459 0,-0.14552 0.12597,-0.26458 0.28008,-0.26458 z m -3.24373,0.55862 c 0.0354,0.0121 0.0476,0.10621 0.0491,0.28629 0.002,0.24641 0.26478,0.6305 0.58342,0.85369 0.31864,0.22318 0.52702,0.45772 0.46302,0.52142 -0.064,0.0637 -0.43112,-0.15502 -0.81597,-0.48628 -0.48657,-0.41877 -0.62892,-0.71399 -0.46715,-0.96945 0.0935,-0.14768 0.15216,-0.21772 0.18758,-0.20567 z m 0.56689,0.23513 c 0.15411,0 0.28009,0.11906 0.28009,0.26458 0,0.14552 -0.0526,0.26459 -0.11679,0.26459 -0.0642,0 -0.19018,-0.11907 -0.28008,-0.26459 -0.0899,-0.14552 -0.0373,-0.26458 0.11678,-0.26458 z m 1.35393,0 c 0.15408,0 0.20669,0.11906 0.11679,0.26458 -0.0899,0.14552 -0.21589,0.26459 -0.28009,0.26459 -0.0642,0 -0.11679,-0.11907 -0.11679,-0.26459 0,-0.14552 0.12598,-0.26458 0.28009,-0.26458 z m -6.19859,0.43873 c 0.0815,0.005 0.13552,0.0719 0.1819,0.19276 0.10177,0.26543 0.0311,0.35284 -0.20981,0.26044 -0.19992,-0.0767 -0.49535,0.10767 -0.65732,0.41032 -0.1618,0.30233 -0.40892,0.54983 -0.54932,0.54983 -0.38109,0 -0.32581,-0.0981 0.50384,-0.89297 0.38258,-0.36653 0.59493,-0.52894 0.73071,-0.52038 z m 6.50193,0.32143 c -5e-5,0.0138 -0.0487,0.0802 -0.15038,0.20205 -0.2711,0.32493 -0.58603,0.98517 -0.70022,1.46762 -0.195,0.82406 -0.20972,0.83361 -0.23512,0.15399 -0.0172,-0.45828 0.23981,-0.99649 0.70073,-1.46813 0.25011,-0.25593 0.38506,-0.3786 0.38499,-0.35553 z m -3.16363,0.0336 c 0.79322,0 0.80022,0.011 0.33124,0.52917 -0.26339,0.29104 -0.5658,0.52916 -0.67179,0.52916 -0.106,0 -0.25463,-0.23812 -0.33073,-0.52916 -0.11613,-0.44407 -0.008,-0.52917 0.67128,-0.52917 z m -1.98748,0.28164 c 0.40802,-0.0116 0.81119,0.31502 1.29966,1.05316 0.49167,0.74295 0.83648,1.02147 1.1281,0.91054 0.32885,-0.12509 0.35092,-0.0898 0.10077,0.16226 -0.24986,0.25155 -0.40359,0.25159 -0.70487,0.002 v 5.2e-4 c -0.31069,-0.25785 -0.49848,-0.20206 -0.96996,0.28887 -0.56266,0.58586 -0.57357,0.58742 -0.29043,0.0367 0.16181,-0.31474 0.44431,-0.62464 0.62787,-0.68884 0.41175,-0.14396 -0.45717,-1.20568 -1.25367,-1.53169 -0.50405,-0.20625 -0.50096,-0.21706 0.0625,-0.23306 z m -0.79323,0.34674 c 0.0562,-0.001 0.0692,0.0821 0.0692,0.25012 0,0.21311 -0.17859,0.45622 -0.39687,0.54002 -0.21828,0.0834 -0.39688,0.0874 -0.39688,0.009 0,-0.0786 0.1786,-0.32122 0.39688,-0.5395 0.17208,-0.1719 0.27143,-0.25813 0.32763,-0.25942 z m 6.37997,0.0248 c 0.0425,7.7e-4 0.10312,0.0185 0.18293,0.0491 0.21197,0.0814 0.38551,0.37359 0.38551,0.64906 0,0.6686 -0.12046,0.63076 -0.47542,-0.14831 -0.18366,-0.40302 -0.22057,-0.55215 -0.093,-0.54984 z m -2.85926,0.047 c 0.14624,0.003 0.2527,0.13299 0.2527,0.38912 0,0.14556 -0.11906,0.19118 -0.26458,0.10128 -0.14552,-0.0899 -0.26459,-0.0373 -0.26459,0.11679 0,0.15411 -0.1199,0.28009 -0.26665,0.28009 -0.1611,0 -0.14041,-0.20288 0.0527,-0.51211 0.15808,-0.25313 0.34417,-0.37795 0.49041,-0.37517 z m -2.9378,0.0935 c 0.15411,0 0.28008,0.11906 0.28008,0.26458 0,0.14552 -0.0526,0.26459 -0.11678,0.26459 -0.0642,0 -0.19019,-0.11907 -0.28009,-0.26459 -0.0899,-0.14552 -0.0373,-0.26458 0.11679,-0.26458 z m 8.74675,0 c 0.14552,0 0.26458,0.11906 0.26458,0.26458 0,0.14552 -0.11906,0.26459 -0.26458,0.26459 -0.14552,0 -0.26458,-0.11907 -0.26458,-0.26459 0,-0.14552 0.11906,-0.26458 0.26458,-0.26458 z m 0.89504,0.10697 c 0.19755,0.004 0.42423,0.0656 0.54105,0.18242 0.0707,0.0707 -0.10433,0.14645 -0.38912,0.16795 -0.2848,0.0215 -0.5178,-0.0624 -0.5178,-0.18604 0,-0.11449 0.16831,-0.16827 0.36587,-0.16433 z m -6.08387,0.5116 c 0.0949,-0.0183 0.16175,0.0345 0.16175,0.14366 0,0.14553 -0.11906,0.33849 -0.26459,0.42839 -0.14552,0.0899 -0.26458,0.0442 -0.26458,-0.10128 0,-0.14552 0.11906,-0.33798 0.26458,-0.42788 0.0364,-0.0225 0.0712,-0.0368 0.10284,-0.0429 z m 4.93975,0.17518 c 0.13694,0 0.24908,0.0989 0.24908,0.22014 0,0.12129 -0.17311,0.22066 -0.38499,0.22066 -0.21186,0 -0.32408,-0.0994 -0.24908,-0.22066 0.0749,-0.12129 0.24806,-0.22014 0.38499,-0.22014 z m -8.43153,0.004 c 0.24608,-0.002 0.51025,0.0975 0.58705,0.2217 v 5.1e-4 c 0.0768,0.12424 -0.15031,0.35804 -0.50436,0.51935 -0.41705,0.18999 -0.70054,0.20124 -0.80512,0.032 -0.0888,-0.14367 -0.0631,-0.24404 0.0568,-0.22324 0.11996,0.0203 0.39667,0.0216 0.61495,0.002 0.35278,-0.0315 0.35278,-0.064 0,-0.29197 -0.34205,-0.22103 -0.33493,-0.25745 0.0506,-0.26045 z m 5.52525,0.26252 c 0.0278,-0.005 0.12181,0.0624 0.293,0.20102 0.22777,0.18438 0.63744,0.26212 0.91054,0.17312 0.37454,-0.12209 0.40681,-0.0979 0.13178,0.0982 -0.20059,0.14298 -0.28349,0.39127 -0.18449,0.55139 0.11314,0.18306 0.0277,0.23242 -0.23048,0.13333 -0.28871,-0.11079 -0.41082,0.003 -0.41082,0.38447 0,0.29802 -0.1319,0.62335 -0.29301,0.72295 -0.20144,0.12449 -0.23155,-0.0154 -0.0961,-0.44752 0.10832,-0.34565 0.24463,-0.80698 0.30283,-1.02526 0.0582,-0.21828 -0.19649,0.19845 -0.56638,0.92604 -0.59928,1.17885 -0.76303,0.84255 -0.24598,-0.50487 0.0889,-0.2318 0.0298,-0.42117 -0.13125,-0.42117 -0.16109,0 -0.29301,-0.10788 -0.29301,-0.23978 0,-0.1319 0.25671,-0.17305 0.57051,-0.091 0.44058,0.11523 0.51958,0.0644 0.34623,-0.22324 -0.0928,-0.15394 -0.13117,-0.23227 -0.10335,-0.23771 z m -1.74615,0.38706 c 0.0887,-0.004 0.13901,0.0323 0.13901,0.10852 0,0.13851 -0.12275,0.29261 -0.27285,0.34261 -0.18378,0.0613 -0.1739,0.37538 0.0305,0.9617 0.44044,1.26344 0.13624,1.30704 -0.35709,0.0512 -0.39618,-1.00849 -0.39157,-1.07709 0.0909,-1.33532 0.15383,-0.0823 0.28081,-0.12513 0.36949,-0.12867 z m 0.57981,0.49092 c 0.0575,0.006 0.10864,0.11311 0.19017,0.32556 h -5.2e-4 c 0.0992,0.25854 0.0713,0.57979 -0.0625,0.71366 -0.35786,0.358 -0.64293,-0.24473 -0.35708,-0.75551 0.10824,-0.19338 0.17243,-0.28949 0.22996,-0.28371 z m -1.92391,0.23513 c 0.0317,0.008 0.10517,0.0809 0.22117,0.20774 0.19967,0.21829 0.51651,0.8521 0.70435,1.4087 0.18781,0.55659 0.28513,1.06818 0.21653,1.13688 -0.0686,0.0686 -0.20213,-0.18349 -0.29663,-0.56017 -0.15486,-0.61702 -0.21226,-0.64454 -0.57981,-0.27699 -0.59966,0.59966 -0.7975,0.49775 -0.23667,-0.12195 0.41061,-0.45372 0.43293,-0.6351 0.15451,-1.25677 -0.17326,-0.38691 -0.23624,-0.5513 -0.18345,-0.53744 z m -3.47008,0.061 c 0.12543,-0.0172 0.2582,0.0415 0.33125,0.15968 0.24301,0.3932 0.0499,0.53269 -0.37465,0.27027 -0.22751,-0.14058 -0.25477,-0.27719 -0.077,-0.38706 0.0378,-0.0233 0.0786,-0.0372 0.1204,-0.0429 z m 10.34149,0.23823 c 0.0241,0.004 0.0525,0.0444 0.0842,0.1235 0.0764,0.19099 0.0667,0.41905 -0.0212,0.50695 -0.0879,0.0879 -0.15051,-0.0684 -0.13901,-0.34727 0.008,-0.19263 0.0359,-0.28926 0.076,-0.28318 z m -9.13846,0.17311 c 0.38757,0 0.46017,0.1587 0.36587,0.80099 -0.0701,0.47779 -0.3451,0.91066 -0.68161,1.0728 -0.52562,0.25327 -0.53142,0.24549 -0.0853,-0.1142 0.30378,-0.24493 0.37634,-0.4492 0.19844,-0.55914 -0.47895,-0.29601 -0.32642,-1.20045 0.20257,-1.20045 z m 7.16959,0.0207 c 0.27311,0.0137 0.30294,0.0671 0.0863,0.15452 -0.1819,0.0734 -0.33073,0.37609 -0.33073,0.67282 0,0.47025 0.0595,0.49457 0.46302,0.19069 0.43362,-0.32649 0.43516,-0.3181 0.0253,0.13126 -0.50653,0.55539 -1.0603,0.34855 -0.85369,-0.31885 0.12813,-0.41388 0.11403,-0.41268 -0.15813,0.0109 -0.16415,0.25549 -0.22514,0.58296 -0.13643,0.7276 0.19946,0.3232 0.11039,0.32527 -0.3917,0.008 -0.3288,-0.20793 -0.29008,-0.35241 0.24494,-0.92191 0.34897,-0.37146 0.8218,-0.66624 1.0511,-0.65474 z m -5.41672,0.26355 c 0.0513,-0.022 0.13436,0.0991 0.23771,0.36846 0.0819,0.21362 0.0599,0.44378 -0.0491,0.51108 -0.10896,0.0673 -0.21548,-0.10765 -0.23668,-0.38861 -0.0229,-0.30382 -0.003,-0.46894 0.0481,-0.49093 z m -3.19981,0.06 c 0.0233,0.006 0.0508,0.0452 0.0811,0.1204 0.0737,0.18285 0.26145,0.25382 0.41703,0.15762 0.1672,-0.10332 0.20563,-0.0498 0.094,0.13074 -0.28533,0.46167 -0.68971,0.36598 -0.66611,-0.15761 0.008,-0.17459 0.035,-0.26037 0.0739,-0.25115 z m 6.72517,0.4749 c 0.0373,0.0107 0.0572,0.13942 0.0553,0.39326 -0.002,0.27892 -0.12463,0.68606 -0.27234,0.90434 -0.19612,0.28984 -0.22114,0.1828 -0.0915,-0.39688 0.13601,-0.60803 0.24636,-0.9186 0.30851,-0.90072 z m -6.26835,0.65836 c 0.12941,-0.001 0.15163,0.0417 0.0646,0.12868 -0.1457,0.1457 -0.73065,0.32135 -1.30018,0.39015 -1.1686,0.14117 -0.9941,0.0144 0.52916,-0.38395 0.34031,-0.089 0.57701,-0.13387 0.70642,-0.13488 z m 5.11855,0.0558 c 0.0205,-0.0111 0.0446,0.0285 0.0698,0.12506 0.0669,0.25743 0.0627,0.61462 -0.01,0.79375 -0.0725,0.17913 -0.12696,-0.0311 -0.12196,-0.46767 0.003,-0.27285 0.0278,-0.43268 0.062,-0.45114 z m -7.7618,0.0543 c 0.14903,0 0.20427,0.10792 0.12247,0.2403 -0.23547,0.38102 0.14091,1.09791 0.47594,0.9064 0.1666,-0.0952 0.21,-0.0713 0.0966,0.0532 -0.284,0.31207 -0.84864,0.36997 -1.24075,0.12764 -0.25017,-0.15459 -0.2565,-0.33478 -0.0264,-0.76481 0.16567,-0.30955 0.42307,-0.56276 0.57206,-0.56276 z m 5.086,0.28319 c 0.1024,-0.009 0.41709,0.22655 0.75912,0.57671 0.39092,0.40019 0.60799,0.7276 0.48214,0.7276 -0.12584,0 -0.41163,-0.18321 -0.6351,-0.40669 -0.22348,-0.22347 -0.44054,-0.39486 -0.48214,-0.38086 -0.0416,0.014 -0.37311,-0.10411 -0.73691,-0.26251 -0.56496,-0.24602 -0.57672,-0.27162 -0.0791,-0.17622 0.32045,0.0614 0.61806,0.0348 0.66146,-0.0589 0.005,-0.0117 0.0159,-0.0178 0.0305,-0.0191 z m 9.15448,0.0139 c 0.0919,0.004 0.17102,0.0279 0.21497,0.0718 0.0879,0.0879 -0.0684,0.15051 -0.34727,0.13901 -0.30823,-0.0127 -0.37075,-0.0752 -0.15968,-0.15968 0.0955,-0.0382 0.20006,-0.055 0.29198,-0.0512 z m -10.6779,0.23203 c 0.0642,0 0.11678,0.11906 0.11678,0.26458 0,0.14552 -0.12597,0.26459 -0.28008,0.26459 -0.15408,0 -0.20669,-0.11907 -0.11679,-0.26459 0.0899,-0.14552 0.21589,-0.26458 0.28009,-0.26458 z m 9.66607,0.27699 c 0.28296,-0.018 0.56491,0.10027 0.66663,0.36535 0.26135,0.68106 -0.004,1.36037 -0.49248,1.26297 -0.49337,-0.0983 -0.65509,-0.84698 -0.18293,-0.84698 0.15408,0 0.20669,0.11907 0.11679,0.26459 -0.0899,0.14552 -0.0373,0.26458 0.11678,0.26458 0.15411,0 0.28009,-0.23813 0.28009,-0.52917 0,-0.59593 -0.51909,-0.69679 -1.02113,-0.19843 -0.26714,0.26517 -0.29843,0.23895 -0.15709,-0.1323 0.10595,-0.27832 0.39038,-0.43257 0.67334,-0.45061 z m -11.14299,0.063 c 0.10088,-0.004 0.18256,0.0125 0.22066,0.0506 0.0762,0.0762 0.003,0.1385 -0.16226,0.1385 -0.16519,0 -0.2316,0.17858 -0.1478,0.39687 0.0838,0.21828 0.0334,0.39688 -0.11214,0.39688 -0.46087,0 -0.57054,-0.74316 -0.13435,-0.91054 0.11496,-0.0441 0.23502,-0.0684 0.33589,-0.0724 z m 2.25516,0.27699 c 0.20543,0 0.3122,0.0994 0.2372,0.22065 -0.0749,0.12129 -0.1816,0.22066 -0.2372,0.22066 -0.0556,0 -0.16219,-0.0994 -0.23719,-0.22066 -0.0749,-0.12128 0.0317,-0.22065 0.23719,-0.22065 z m 10.68307,0.0326 c 0.0416,0.006 0.092,0.0203 0.1509,0.0429 0.22584,0.0867 0.41082,0.2048 0.41082,0.262 0,0.21429 -0.50401,0.0938 -0.65939,-0.15761 -0.0695,-0.11249 -0.0272,-0.1659 0.0977,-0.14728 z m -9.79062,0.0119 0.0171,0.60151 c 0.0115,0.41112 -0.19839,0.68364 -0.66198,0.8599 -0.88311,0.33578 -0.90899,0.33144 -0.90899,-0.15658 0,-0.29471 0.15339,-0.36574 0.53072,-0.24598 0.39624,0.12577 0.59354,0.0126 0.77721,-0.44545 z m -3.13572,0.99839 c 0.29416,-0.0222 0.46587,0.0715 0.38137,0.20825 -0.18586,0.30075 -0.91622,0.33288 -0.91622,0.0403 0,-0.11455 0.24067,-0.22636 0.53485,-0.24856 z m 6.23734,1.95388 c 0.0382,0.0434 0.0546,0.54814 0.0718,1.61179 0.0194,1.20054 -0.0114,2.18281 -0.0682,2.18281 -0.22182,0 -0.3099,-1.90867 -0.14314,-3.10523 0.0666,-0.47774 0.10982,-0.72311 0.13952,-0.68937 z m -1.08003,0.6687 c 0.0474,0.006 0.0822,0.53797 0.0982,1.60455 0.0126,0.83813 -0.0305,1.56137 -0.1018,1.87844 h -0.16588 c -0.0557,-0.2691 -0.0729,-0.83015 -0.0341,-1.48157 0.0795,-1.33723 0.14984,-2.00771 0.20361,-2.00142 z" />
      <path
         style="fill:#000000;stroke:#ffffff;stroke-opacity:1"
         d="m 145.08922,152.89006 c -0.0847,-0.13709 -0.002,-0.37568 0.18448,-0.5302 0.18618,-0.15452 0.6902,-1.4777 1.12002,-2.9404 0.45339,-1.54287 0.92101,-2.65945 1.11378,-2.65945 0.42244,0 0.47708,-0.2694 -0.58507,2.88456 -0.50453,1.49817 -0.89148,2.85395 -0.85989,3.01283 0.0728,0.36598 -0.76688,0.56668 -0.97332,0.23266 z m -41.79459,-1.56598 c -0.0719,-0.25467 -0.21146,-0.99881 -0.31005,-1.65365 -0.38273,-2.54197 -1.27876,-5.81707 -2.39675,-8.76042 -0.641749,-1.68953 -1.166809,-3.13551 -1.166809,-3.21328 0,-0.34334 1.950259,0.34411 2.787149,0.98244 1.07815,0.82234 1.69192,1.95322 2.4472,4.50897 1.3567,4.59086 1.33354,6.08302 -0.12124,7.81193 -0.75922,0.90229 -1.05435,0.97944 -1.2395,0.32401 z m -14.869632,-1.24377 c -0.23368,-0.35664 -0.38435,-0.85887 -0.33483,-1.11605 0.0815,-0.42322 2.68738,-2.46883 3.14501,-2.46883 0.10474,0 0.24486,0.38695 0.31136,0.8599 0.0665,0.47294 0.194403,1.03848 0.284213,1.25677 0.10991,0.26716 -0.21918,0.67792 -1.006893,1.25677 -1.40162,1.02997 -1.83737,1.06838 -2.39886,0.21144 z m 13.371732,-1.91452 c -0.46972,-1.42802 -0.92853,-2.67447 -1.01957,-2.76989 -0.2639,-0.2766 -4.807089,1.18542 -6.159449,1.98213 l -1.23142,0.72548 -0.58338,-0.81927 c -0.32085,-0.4506 -0.65023,-0.75242 -0.73194,-0.67071 -0.0817,0.0817 0.13211,0.44733 0.47515,0.81249 0.49901,0.53117 0.55738,0.72934 0.29191,0.99114 -0.64445,0.63556 -1.455413,-1.25417 -0.88744,-2.06796 0.33325,-0.47748 2.98241,-1.48324 5.98462,-2.27209 1.5839,-0.41617 2.964039,-0.75668 3.066979,-0.75668 0.10293,0 0.32319,0.45406 0.48946,1.00902 0.44887,1.49819 1.39063,6.20125 1.2666,6.32527 -0.0591,0.0591 -0.49179,-1.06091 -0.96152,-2.48893 z m 61.65345,1.10776 c -0.18115,-0.21828 -0.50331,-0.39687 -0.7159,-0.39687 -0.21506,0 -0.31814,-0.14672 -0.23236,-0.33073 0.0848,-0.1819 0.22767,-0.53909 0.31749,-0.79375 0.0898,-0.25466 0.3578,-0.46465 0.59549,-0.46663 0.23768,-0.002 0.6823,-0.0708 0.98803,-0.15284 0.65042,-0.1746 1.4285,0.48707 1.4285,1.21478 0,1.12295 -1.67668,1.775 -2.38125,0.92604 z m -8.42043,-2.07161 -6.43606,-1.36728 0.15717,-0.78583 c 0.0864,-0.4322 0.2578,-0.88646 0.38079,-1.00946 0.123,-0.12299 3.13376,0.51527 6.69058,1.41836 l 6.46695,1.64199 -0.11099,0.75619 c -0.061,0.4159 -0.2463,0.74654 -0.41168,0.73475 -0.16539,-0.0118 -3.19693,-0.63672 -6.73676,-1.38872 z m -7.6197,-1.1132 c 0.0858,-0.22368 0.3486,-1.06902 0.58393,-1.87853 0.27193,-0.93539 0.52001,-1.37972 0.68065,-1.21908 0.35554,0.35554 -0.59821,3.50346 -1.06161,3.50393 -0.21435,2.2e-4 -0.29614,-0.16352 -0.20297,-0.40632 z m -1.35622,-0.0446 c -0.7052,-0.13583 -0.72345,-0.34406 -0.18819,-2.1465 0.33206,-1.11815 0.51501,-1.37019 0.99219,-1.36689 1.09469,0.008 1.18609,0.28997 0.66234,2.04647 -0.2712,0.90951 -0.57812,1.63743 -0.68206,1.61761 -0.10393,-0.0198 -0.45686,-0.0876 -0.78428,-0.15069 z m -2.18281,-0.58626 c -0.41691,-0.11863 -0.63336,-0.35013 -0.58544,-0.62614 0.0475,-0.27367 -0.15097,-0.49044 -0.52917,-0.57794 -0.33285,-0.077 -4.69918,-1.09961 -9.70295,-2.27244 l -9.09777,-2.13241 -9.25533,1.99697 c -5.09043,1.09834 -9.36058,1.93193 -9.48921,1.85243 -0.12864,-0.0795 -0.23388,-0.34771 -0.23388,-0.59603 0,-0.50593 1.49179,-0.86969 10.58333,-2.58062 2.83766,-0.53402 5.25488,-1.05765 5.3716,-1.16364 0.11673,-0.10598 -0.65718,-0.40094 -1.71979,-0.65547 -9.14566,-2.19067 -30.433432,-7.52348 -30.567412,-7.65746 -0.0929,-0.0929 -0.0393,-0.29855 0.11917,-0.457 0.20772,-0.20772 2.45391,0.20302 8.052153,1.47241 4.270239,0.96827 8.299849,1.87812 8.954699,2.0219 6.58894,1.44668 18.06156,4.02134 18.82725,4.22516 0.77702,0.20685 1.92481,0.0717 5.82083,-0.68555 2.66913,-0.51876 7.23421,-1.40592 10.14462,-1.97147 2.91042,-0.56554 9.02002,-1.75746 13.5769,-2.6487 4.55688,-0.89125 8.39628,-1.58331 8.53201,-1.53792 0.13573,0.0454 -5.2595,1.25447 -11.98939,2.68685 -20.20075,4.29948 -22.15806,4.73891 -22.15806,4.97467 0,0.12442 0.22359,0.22622 0.49687,0.22622 0.27327,0 3.63387,0.72625 7.46799,1.61388 5.62013,1.30112 7.06644,1.55437 7.46289,1.30678 0.73029,-0.45607 2.09699,-0.094 1.90682,0.50518 -0.0818,0.25784 -0.2975,0.98244 -0.47926,1.61022 -0.35968,1.24231 -0.51568,1.3529 -1.50947,1.07012 z m -43.78149,-2.99733 c -0.833029,-3.66486 -0.791509,-4.24522 0.1235,-1.72612 0.33162,0.91299 0.65901,1.80881 0.72753,1.99071 0.0685,0.1819 -0.0645,0.33073 -0.29557,0.33073 -0.23108,0 -0.48103,-0.26789 -0.55546,-0.59532 z m 48.72086,0.13829 c -0.10033,-0.16234 0.23555,-1.44981 0.7464,-2.86105 0.51084,-1.41123 0.92881,-2.84934 0.92881,-3.19578 0,-0.45351 0.14818,-0.62989 0.52917,-0.62989 0.63338,0 0.66944,0.33369 0.12572,1.16352 -0.2219,0.33865 -0.7959,1.78632 -1.27556,3.21705 -0.47967,1.43072 -0.95421,2.46849 -1.05454,2.30615 z"
         id="path1" />
      <path
         style="fill:#000000;stroke:none;stroke-opacity:1"
         d="m 145.08922,152.89006 c -0.0847,-0.13709 -0.002,-0.37568 0.18448,-0.5302 0.18618,-0.15452 0.6902,-1.4777 1.12002,-2.9404 0.45339,-1.54287 0.92101,-2.65945 1.11378,-2.65945 0.42244,0 0.47708,-0.2694 -0.58507,2.88456 -0.50453,1.49817 -0.89148,2.85395 -0.85989,3.01283 0.0728,0.36598 -0.76688,0.56668 -0.97332,0.23266 z m -41.79459,-1.56598 c -0.0719,-0.25467 -0.21146,-0.99881 -0.31005,-1.65365 -0.38273,-2.54197 -1.27876,-5.81707 -2.39675,-8.76042 -0.641749,-1.68953 -1.166809,-3.13551 -1.166809,-3.21328 0,-0.34334 1.950259,0.34411 2.787149,0.98244 1.07815,0.82234 1.69192,1.95322 2.4472,4.50897 1.3567,4.59086 1.33354,6.08302 -0.12124,7.81193 -0.75922,0.90229 -1.05435,0.97944 -1.2395,0.32401 z m -14.869632,-1.24377 c -0.23368,-0.35664 -0.38435,-0.85887 -0.33483,-1.11605 0.0815,-0.42322 2.68738,-2.46883 3.14501,-2.46883 0.10474,0 0.24486,0.38695 0.31136,0.8599 0.0665,0.47294 0.194403,1.03848 0.284213,1.25677 0.10991,0.26716 -0.21918,0.67792 -1.006893,1.25677 -1.40162,1.02997 -1.83737,1.06838 -2.39886,0.21144 z m 13.371732,-1.91452 c -0.46972,-1.42802 -0.92853,-2.67447 -1.01957,-2.76989 -0.2639,-0.2766 -4.807089,1.18542 -6.159449,1.98213 l -1.23142,0.72548 -0.58338,-0.81927 c -0.32085,-0.4506 -0.65023,-0.75242 -0.73194,-0.67071 -0.0817,0.0817 0.13211,0.44733 0.47515,0.81249 0.49901,0.53117 0.55738,0.72934 0.29191,0.99114 -0.64445,0.63556 -1.455413,-1.25417 -0.88744,-2.06796 0.33325,-0.47748 2.98241,-1.48324 5.98462,-2.27209 1.5839,-0.41617 2.964039,-0.75668 3.066979,-0.75668 0.10293,0 0.32319,0.45406 0.48946,1.00902 0.44887,1.49819 1.39063,6.20125 1.2666,6.32527 -0.0591,0.0591 -0.49179,-1.06091 -0.96152,-2.48893 z m 61.65345,1.10776 c -0.18115,-0.21828 -0.50331,-0.39687 -0.7159,-0.39687 -0.21506,0 -0.31814,-0.14672 -0.23236,-0.33073 0.0848,-0.1819 0.22767,-0.53909 0.31749,-0.79375 0.0898,-0.25466 0.3578,-0.46465 0.59549,-0.46663 0.23768,-0.002 0.6823,-0.0708 0.98803,-0.15284 0.65042,-0.1746 1.4285,0.48707 1.4285,1.21478 0,1.12295 -1.67668,1.775 -2.38125,0.92604 z m -8.42043,-2.07161 -6.43606,-1.36728 0.15717,-0.78583 c 0.0864,-0.4322 0.2578,-0.88646 0.38079,-1.00946 0.123,-0.12299 3.13376,0.51527 6.69058,1.41836 l 6.46695,1.64199 -0.11099,0.75619 c -0.061,0.4159 -0.2463,0.74654 -0.41168,0.73475 -0.16539,-0.0118 -3.19693,-0.63672 -6.73676,-1.38872 z m -7.6197,-1.1132 c 0.0858,-0.22368 0.3486,-1.06902 0.58393,-1.87853 0.27193,-0.93539 0.52001,-1.37972 0.68065,-1.21908 0.35554,0.35554 -0.59821,3.50346 -1.06161,3.50393 -0.21435,2.2e-4 -0.29614,-0.16352 -0.20297,-0.40632 z m -1.35622,-0.0446 c -0.7052,-0.13583 -0.72345,-0.34406 -0.18819,-2.1465 0.33206,-1.11815 0.51501,-1.37019 0.99219,-1.36689 1.09469,0.008 1.18609,0.28997 0.66234,2.04647 -0.2712,0.90951 -0.57812,1.63743 -0.68206,1.61761 -0.10393,-0.0198 -0.45686,-0.0876 -0.78428,-0.15069 z m -2.18281,-0.58626 c -0.41691,-0.11863 -0.63336,-0.35013 -0.58544,-0.62614 0.0475,-0.27367 -0.15097,-0.49044 -0.52917,-0.57794 -0.33285,-0.077 -4.69918,-1.09961 -9.70295,-2.27244 l -9.09777,-2.13241 -9.25533,1.99697 c -5.09043,1.09834 -9.36058,1.93193 -9.48921,1.85243 -0.12864,-0.0795 -0.23388,-0.34771 -0.23388,-0.59603 0,-0.50593 1.49179,-0.86969 10.58333,-2.58062 2.83766,-0.53402 5.25488,-1.05765 5.3716,-1.16364 0.11673,-0.10598 -0.65718,-0.40094 -1.71979,-0.65547 -9.14566,-2.19067 -30.433432,-7.52348 -30.567412,-7.65746 -0.0929,-0.0929 -0.0393,-0.29855 0.11917,-0.457 0.20772,-0.20772 2.45391,0.20302 8.052153,1.47241 4.270239,0.96827 8.299849,1.87812 8.954699,2.0219 6.58894,1.44668 18.06156,4.02134 18.82725,4.22516 0.77702,0.20685 1.92481,0.0717 5.82083,-0.68555 2.66913,-0.51876 7.23421,-1.40592 10.14462,-1.97147 2.91042,-0.56554 9.02002,-1.75746 13.5769,-2.6487 4.55688,-0.89125 8.39628,-1.58331 8.53201,-1.53792 0.13573,0.0454 -5.2595,1.25447 -11.98939,2.68685 -20.20075,4.29948 -22.15806,4.73891 -22.15806,4.97467 0,0.12442 0.22359,0.22622 0.49687,0.22622 0.27327,0 3.63387,0.72625 7.46799,1.61388 5.62013,1.30112 7.06644,1.55437 7.46289,1.30678 0.73029,-0.45607 2.09699,-0.094 1.90682,0.50518 -0.0818,0.25784 -0.2975,0.98244 -0.47926,1.61022 -0.35968,1.24231 -0.51568,1.3529 -1.50947,1.07012 z m -43.78149,-2.99733 c -0.833029,-3.66486 -0.791509,-4.24522 0.1235,-1.72612 0.33162,0.91299 0.65901,1.80881 0.72753,1.99071 0.0685,0.1819 -0.0645,0.33073 -0.29557,0.33073 -0.23108,0 -0.48103,-0.26789 -0.55546,-0.59532 z m 48.72086,0.13829 c -0.10033,-0.16234 0.23555,-1.44981 0.7464,-2.86105 0.51084,-1.41123 0.92881,-2.84934 0.92881,-3.19578 0,-0.45351 0.14818,-0.62989 0.52917,-0.62989 0.63338,0 0.66944,0.33369 0.12572,1.16352 -0.2219,0.33865 -0.7959,1.78632 -1.27556,3.21705 -0.47967,1.43072 -0.95421,2.46849 -1.05454,2.30615 z"
         id="path65" />
    </g>
  </g>
</svg>
