<?xml version="1.0" standalone="no"?>
<!DOCTYPE svg PUBLIC "-//W3C//DTD SVG 20010904//EN"
 "http://www.w3.org/TR/2001/REC-SVG-20010904/DTD/svg10.dtd">
<svg version="1.0" xmlns="http://www.w3.org/2000/svg"
 width="311.000000pt" height="311.000000pt" viewBox="0 0 311.000000 311.000000"
 preserveAspectRatio="xMidYMid meet">
<metadata>
Created by potrace 1.14, written by Peter Selinger 2001-2017
</metadata>
<g transform="translate(0.000000,311.000000) scale(0.100000,-0.100000)"
fill="#000000" stroke="none">
<path d="M853 2265 l-698 -694 175 -175 c172 -171 176 -175 237 -190 96 -24
128 -19 86 15 -15 12 -16 12 -9 -5 7 -19 6 -19 -14 -1 -11 10 -20 19 -20 20 0
7 42 -4 56 -16 16 -12 17 -12 11 3 -3 10 -1 20 5 24 6 4 8 3 5 -3 -10 -15 11
-28 67 -43 28 -8 45 -15 40 -17 -5 -2 -32 3 -59 12 -38 11 -51 12 -57 2 -5 -8
11 -16 55 -25 186 -40 835 -184 851 -189 12 -3 16 -1 12 6 -4 6 -1 9 7 5 8 -3
131 17 273 45 143 28 278 53 302 57 34 5 40 9 31 20 -15 19 13 30 38 15 15 -9
13 -10 -12 -5 -23 5 -27 4 -19 -6 9 -9 35 -8 120 8 60 11 143 25 185 32 l77
12 186 185 c102 102 186 188 186 191 0 9 -1404 1412 -1412 1412 -4 0 -321
-313 -705 -695z m1374 -69 c354 -352 642 -644 641 -648 -2 -5 -68 -74 -148
-153 -128 -128 -146 -143 -160 -130 -13 13 -4 25 75 105 l90 90 -90 90 -90 90
-65 0 -65 0 -137 137 c-128 128 -138 140 -138 175 0 26 -4 38 -14 38 -8 0 -17
-4 -21 -9 -3 -6 -18 -3 -35 7 -27 15 -32 15 -40 2 -7 -10 -12 -11 -17 -4 -13
17 -41 24 -47 11 -3 -9 -7 -9 -14 1 -5 8 -18 12 -28 10 -15 -2 -19 -12 -18
-38 2 -64 4 -70 22 -70 10 0 23 -5 30 -12 9 -9 12 -9 12 0 0 16 25 3 62 -32
15 -15 31 -25 35 -24 4 1 21 -5 36 -12 24 -12 30 -12 38 1 12 19 11 7 -1 -25
-10 -28 -2 -34 18 -14 9 9 12 9 12 0 0 -7 9 -12 20 -12 10 0 25 -10 31 -22 12
-22 11 -22 -7 -8 -18 14 -18 14 -5 -3 8 -10 20 -16 28 -13 8 3 11 1 8 -5 -4
-5 1 -22 11 -37 10 -15 17 -33 16 -39 -2 -7 2 -13 8 -13 6 0 8 6 5 13 -4 6 3
1 14 -12 12 -13 24 -35 27 -50 8 -35 43 -119 44 -103 0 7 4 11 10 7 5 -3 7
-11 4 -18 -2 -7 10 -28 27 -46 26 -29 30 -40 27 -77 -2 -32 1 -45 12 -48 8 -2
-43 -4 -113 -5 -73 -1 -126 3 -123 8 3 5 -1 21 -8 37 -9 15 -12 40 -9 56 4 18
0 35 -10 46 -8 10 -18 48 -22 91 -5 53 -13 79 -27 93 -16 16 -18 27 -13 59 4
21 11 39 16 39 6 0 8 4 4 10 -6 10 -36 2 -47 -13 -3 -6 -4 -25 -1 -44 5 -32 5
-33 -28 -33 -19 0 -51 -5 -72 -11 -31 -8 -49 -6 -107 12 -38 13 -67 26 -64 31
3 4 -3 8 -13 8 -22 0 -105 55 -96 64 4 3 -1 6 -10 6 -9 0 -19 -4 -22 -10 -9
-15 -25 -12 -19 4 9 24 61 40 89 28 27 -12 33 -4 13 16 -9 9 -8 12 6 12 26 0
10 18 -24 25 -21 5 -41 0 -69 -16 -38 -21 -51 -42 -51 -86 0 -12 -5 -23 -11
-25 -14 -5 -40 -79 -34 -96 3 -7 9 -10 15 -7 5 3 10 1 10 -5 0 -6 8 -10 18 -8
12 2 16 -3 15 -20 -3 -22 -3 -22 17 -4 12 11 19 29 18 42 -6 46 18 29 50 -37
l33 -67 -30 -28 c-36 -33 -35 -31 -17 -66 7 -15 16 -44 20 -64 4 -21 11 -38
17 -38 6 0 7 -4 4 -10 -4 -6 -97 -10 -245 -10 -277 0 -259 -8 -268 112 -3 50
0 80 12 113 17 44 36 60 36 31 0 -18 6 -22 48 -31 28 -6 32 -4 32 14 l0 21 33
-20 c43 -26 47 -25 47 10 0 27 3 30 23 25 12 -4 35 -1 51 5 l28 10 -20 33
c-14 24 -25 32 -44 30 -14 -1 -25 4 -25 10 0 7 -1 27 -1 45 -2 29 -5 32 -25
27 -40 -11 -28 23 15 40 l39 15 -23 30 c-12 17 -28 30 -35 30 -8 0 -13 13 -13
34 0 19 -3 41 -6 49 -8 21 -40 10 -67 -24 l-22 -28 -2 34 c-2 21 2 35 8 35 6
0 8 -7 5 -16 -3 -8 -2 -12 4 -9 6 3 11 18 11 33 1 15 3 20 6 11 5 -20 54 -19
78 1 9 8 15 8 15 2 0 -6 -4 -14 -10 -17 -5 -3 -10 -11 -10 -17 0 -7 6 -6 15 2
12 10 15 42 15 166 0 147 -1 154 -20 154 -11 0 -20 -4 -20 -10 0 -5 -16 -10
-35 -10 -19 0 -35 5 -35 10 0 15 -57 12 -63 -2 -4 -10 -7 -10 -18 0 -16 14
-59 16 -59 2 0 -5 -7 -10 -15 -10 -8 0 -15 5 -15 10 0 6 -11 10 -25 10 -14 0
-25 -4 -25 -10 0 -5 -7 -10 -15 -10 -8 0 -15 5 -15 10 0 6 -13 10 -30 10 -23
0 -30 -4 -30 -20 0 -11 -7 -23 -15 -26 -8 -4 -15 -12 -15 -20 0 -8 -4 -14 -9
-14 -4 0 -10 -57 -13 -126 l-5 -126 -136 -136 -135 -135 -64 2 -63 2 -85 -86
-85 -85 94 -94 c83 -84 103 -116 70 -116 -5 0 -79 70 -164 155 l-156 155 648
644 c535 532 650 642 662 633 8 -7 304 -300 658 -651z m-1110 -8 c-3 -8 -6 -5
-6 6 -1 11 2 17 5 13 3 -3 4 -12 1 -19z m88 13 c3 -5 1 -12 -5 -16 -5 -3 -10
1 -10 9 0 18 6 21 15 7z m85 -6 c0 -8 -4 -15 -10 -15 -5 0 -10 7 -10 15 0 8 5
15 10 15 6 0 10 -7 10 -15z m-60 -95 c0 -11 -4 -20 -10 -20 -5 0 -10 9 -10 20
0 11 5 20 10 20 6 0 10 -9 10 -20z m-84 -106 c-5 -13 -10 -14 -18 -6 -6 6 -8
18 -4 28 5 13 10 14 18 6 6 -6 8 -18 4 -28z m-99 -46 c-3 -8 -6 -5 -6 6 -1 11
2 17 5 13 3 -3 4 -12 1 -19z m223 -22 c0 -2 -7 -7 -16 -10 -8 -3 -12 -2 -9 4
6 10 25 14 25 6z m-70 -26 c0 -5 -5 -10 -11 -10 -5 0 -7 5 -4 10 3 6 8 10 11
10 2 0 4 -4 4 -10z m100 0 c0 -5 -4 -10 -9 -10 -5 0 -16 -3 -25 -6 -9 -3 -16
-1 -16 4 0 9 16 17 43 21 4 0 7 -3 7 -9z m-254 -28 c-4 -3 -16 -7 -28 -9 -16
-3 -18 -1 -9 10 6 8 7 17 3 22 -4 4 4 2 16 -4 13 -7 21 -15 18 -19z m344 -26
c-8 -8 -10 -7 -5 5 4 10 1 20 -5 24 -9 6 -9 10 1 16 18 11 26 -28 9 -45z m761
37 c13 -16 12 -17 -3 -4 -10 7 -18 15 -18 17 0 8 8 3 21 -13z m-938 -8 c-3 -9
-8 -14 -10 -11 -3 3 -2 9 2 15 9 16 15 13 8 -4z m-82 -28 c-10 -9 -11 -8 -5 6
3 10 9 15 12 12 3 -3 0 -11 -7 -18z m-71 9 c0 -2 -6 -9 -14 -15 -11 -9 -16 -9
-22 0 -4 7 -3 9 4 5 6 -3 13 -2 17 4 6 10 15 14 15 6z m280 -21 c0 -8 -4 -15
-8 -15 -5 0 -9 7 -9 15 0 8 4 15 9 15 4 0 8 -7 8 -15z m-320 -58 c0 -5 -4 -5
-10 -2 -5 3 -10 14 -10 23 0 15 2 15 10 2 5 -8 10 -19 10 -23z m292 11 c-4
-16 -6 -16 -28 -1 -30 19 -30 20 4 19 22 -1 28 -5 24 -18z m124 13 c-4 -5 -1
-12 4 -14 6 -3 5 -4 -2 -3 -15 3 -23 26 -8 26 6 0 9 -4 6 -9z m-306 -5 c0 -2
-7 -7 -16 -10 -8 -3 -12 -2 -9 4 6 10 25 14 25 6z m150 -50 c0 -12 -5 -7 -19
24 -11 24 -11 24 3 6 9 -11 16 -24 16 -30z m-120 23 c0 -5 -4 -7 -10 -4 -5 3
-10 1 -10 -4 0 -6 -5 -11 -11 -11 -8 0 -8 5 1 15 14 17 30 20 30 4z m266 -1
c3 -4 -1 -5 -10 -4 -8 1 -18 5 -22 8 -3 4 1 5 10 4 8 -1 18 -5 22 -8z m-362
-27 c6 -10 -24 -25 -32 -16 -3 3 1 5 9 5 11 0 11 2 -1 10 -13 8 -13 10 2 10 9
0 19 -4 22 -9z m56 -16 c14 -19 14 -19 -2 -6 -10 7 -18 18 -18 24 0 6 1 8 3 6
1 -2 9 -13 17 -24z m260 10 c5 3 12 0 16 -7 4 -7 4 -10 -1 -6 -4 4 -13 4 -19
-2 -8 -6 -12 -2 -13 13 0 12 1 16 4 9 3 -6 9 -10 13 -7z m-390 -5 c0 -5 -5
-10 -11 -10 -5 0 -7 5 -4 10 3 6 8 10 11 10 2 0 4 -4 4 -10z m192 -18 c-10 -7
-10 -15 -2 -37 6 -15 9 -30 6 -32 -6 -7 -26 59 -20 68 3 5 11 9 17 9 9 0 8 -3
-1 -8z m67 -4 c0 -7 -5 -22 -10 -33 -8 -17 -9 -16 -4 7 3 16 0 28 -8 31 -7 3
-5 6 6 6 9 1 17 -5 16 -11z m-278 -44 c-9 -28 -9 -29 -10 -3 -1 14 2 29 6 32
11 12 13 2 4 -29z m177 11 c-3 -3 -9 2 -12 12 -6 14 -5 15 5 6 7 -7 10 -15 7
-18z m1153 -2 c-12 -20 -14 -14 -5 12 4 9 9 14 11 11 3 -2 0 -13 -6 -23z
m-892 1 c-6 -8 -6 -14 0 -18 5 -3 11 0 14 6 2 7 7 11 10 8 3 -3 2 -12 -3 -20
-7 -11 -11 -11 -24 -1 -20 17 -21 38 -1 38 11 0 12 -4 4 -13z m-351 -19 c-2
-26 -12 -32 -23 -15 -3 6 -2 10 4 10 6 0 8 7 5 15 -4 8 -1 15 5 15 6 0 10 -11
9 -25z m38 6 c0 -11 -4 -17 -8 -15 -4 3 -8 0 -8 -7 0 -7 -3 -10 -6 -7 -5 5 12
48 19 48 2 0 3 -9 3 -19z m226 12 c-10 -4 -9 -8 4 -17 13 -10 14 -15 4 -21 -9
-5 -11 -4 -6 3 4 7 2 12 -3 12 -6 0 -11 -7 -11 -17 0 -9 -3 -13 -7 -9 -19 18
-3 57 22 55 6 0 4 -3 -3 -6z m56 -15 c-4 -31 -25 -33 -30 -3 -4 20 -1 25 14
25 14 0 19 -6 16 -22z m-378 -3 c0 -8 -2 -15 -4 -15 -2 0 -6 7 -10 15 -3 8 -1
15 4 15 6 0 10 -7 10 -15z m123 0 c4 -8 3 -16 -1 -19 -4 -3 -9 4 -9 15 -2 23
3 25 10 4z m297 -40 c0 -1 -12 -2 -26 -2 -17 0 -22 2 -13 7 10 7 39 3 39 -5z
m-507 -12 c-6 -15 -4 -16 9 -5 13 10 15 9 13 -10 -4 -34 -4 -35 -20 -14 -10
13 -15 15 -15 6 0 -7 -3 -11 -6 -8 -3 4 -1 16 6 27 13 25 22 28 13 4z m201
-15 c-9 -14 -23 2 -17 18 4 12 8 13 14 3 4 -7 5 -17 3 -21z m93 0 c-3 -7 -5
-2 -5 12 0 14 2 19 5 13 2 -7 2 -19 0 -25z m98 3 c-3 -6 -16 -16 -28 -22 -20
-10 -20 -9 3 14 25 24 38 28 25 8z m212 -3 c-3 -8 -6 -5 -6 6 -1 11 2 17 5 13
3 -3 4 -12 1 -19z m-142 2 c3 -5 1 -10 -4 -10 -6 0 -11 5 -11 10 0 6 2 10 4
10 3 0 8 -4 11 -10z m-359 -22 c0 -10 -4 -18 -8 -18 -4 0 -8 6 -8 14 0 8 -6
16 -12 19 -7 3 -4 5 7 4 13 -1 21 -8 21 -19z m421 2 c4 -12 3 -13 -5 -1 -6 8
-17 11 -26 8 -9 -4 -16 -2 -16 4 0 16 43 6 47 -11z m-350 -7 c0 -9 -4 -10 -14
-2 -7 6 -13 12 -13 14 0 1 6 2 13 2 8 0 14 -6 14 -14z m58 7 c3 -6 -1 -7 -9
-4 -18 7 -21 14 -7 14 6 0 13 -4 16 -10z m208 -15 c-7 -21 -12 -19 -10 4 0 11
5 18 9 15 4 -3 5 -11 1 -19z m142 7 c-3 -3 -11 0 -18 7 -9 10 -8 11 6 5 10 -3
15 -9 12 -12z m-505 -2 c0 -5 -5 -10 -11 -10 -5 0 -7 5 -4 10 3 6 8 10 11 10
2 0 4 -4 4 -10z m106 -28 c-15 -15 -15 -15 -4 10 7 15 15 23 17 17 2 -6 -4
-18 -13 -27z m96 31 c-9 -3 -10 -9 -2 -18 12 -14 2 -48 -12 -39 -5 3 -5 11 2
19 13 16 -3 30 -22 20 -7 -4 -4 1 6 9 11 9 25 16 30 15 6 0 5 -3 -2 -6z m138
-26 c10 -20 10 -21 -3 -4 -11 14 -16 15 -20 5 -3 -7 -4 -3 -4 9 1 25 12 21 27
-10z m-444 12 c4 -6 20 -9 38 -6 27 4 32 2 33 -15 3 -31 10 -33 48 -15 29 14
35 14 35 2 0 -20 19 -29 34 -16 7 6 15 8 18 5 3 -3 15 6 26 20 l20 26 16 -40
c19 -48 21 -165 3 -200 -10 -21 -20 -25 -52 -24 -22 0 -114 2 -205 3 -92 2
-154 6 -140 10 14 4 24 13 22 20 -1 7 7 25 18 41 11 15 20 33 20 38 0 5 7 23
15 38 8 16 15 37 15 46 0 10 9 22 21 28 20 11 20 12 3 31 -9 10 -12 19 -6 19
6 0 14 -5 18 -11z m551 -13 c0 -8 -6 -12 -15 -9 -11 5 -11 7 0 14 7 5 13 9 14
9 0 0 1 -6 1 -14z m615 -60 c10 -11 23 -38 29 -58 10 -30 9 -44 -7 -82 -22
-53 -29 -56 -151 -56 -79 0 -92 2 -97 18 -18 56 2 155 34 172 10 5 39 10 63
10 28 0 49 6 57 15 16 19 49 11 72 -19z m-844 -27 c-3 -20 -5 -19 -9 9 -3 20
-2 29 4 23 5 -5 7 -19 5 -32z m19 -1 c-3 -7 -5 -2 -5 12 0 14 2 19 5 13 2 -7
2 -19 0 -25z m571 -77 c-2 -64 -6 -77 -16 -68 -16 13 -42 73 -42 98 0 17 34
49 52 49 5 0 7 -36 6 -79z m371 -4 c13 -33 14 -76 4 -78 -5 -1 -28 -2 -52 -3
-37 -2 -41 0 -26 10 11 8 15 20 10 33 -3 11 -1 38 5 61 10 39 11 39 30 22 10
-9 23 -30 29 -45z m-952 11 c-3 -7 -5 -2 -5 12 0 14 2 19 5 13 2 -7 2 -19 0
-25z m-30 -40 c-2 -13 -4 -3 -4 22 0 25 2 35 4 23 2 -13 2 -33 0 -45z m63 -58
c6 0 10 -5 10 -10 0 -7 -6 -7 -20 0 -14 7 -20 20 -19 43 l1 32 9 -32 c5 -18
14 -33 19 -33z m-53 -2 c-3 -8 -6 -5 -6 6 -1 11 2 17 5 13 3 -3 4 -12 1 -19z
m-404 -15 c-35 -2 -91 -2 -125 0 -35 2 -7 3 62 3 69 0 97 -1 63 -3z m125 0
c-10 -2 -26 -2 -35 0 -10 3 -2 5 17 5 19 0 27 -2 18 -5z m65 0 c-7 -2 -19 -2
-25 0 -7 3 -2 5 12 5 14 0 19 -2 13 -5z m148 -5 c0 -10 2 -10 6 0 6 16 20 16
20 -1 0 -7 -14 -12 -33 -13 -25 -1 -29 2 -20 12 14 17 26 17 27 2z m159 2 c0
-5 -5 -10 -11 -10 -5 0 -7 5 -4 10 3 6 8 10 11 10 2 0 4 -4 4 -10z m103 3
c-13 -2 -33 -2 -45 0 -13 2 -3 4 22 4 25 0 35 -2 23 -4z m220 0 c-7 -2 -21 -2
-30 0 -10 3 -4 5 12 5 17 0 24 -2 18 -5z m110 0 c-7 -2 -19 -2 -25 0 -7 3 -2
5 12 5 14 0 19 -2 13 -5z m54 0 c-9 -2 -15 -8 -12 -13 3 -5 -3 -8 -14 -7 -29
2 -14 23 17 24 15 0 19 -1 9 -4z m51 -5 c-2 -6 -14 -13 -26 -15 -19 -2 -21 -1
-10 12 16 17 41 20 36 3z m102 5 c-31 -3 -40 -7 -30 -13 11 -7 10 -9 -7 -7
-12 0 -19 5 -17 9 3 4 -1 8 -10 8 -8 0 -17 -6 -19 -12 -3 -8 -6 -6 -6 5 -1 15
8 17 67 15 52 -1 57 -2 22 -5z m170 -9 c0 -7 -5 -16 -12 -20 -6 -4 -8 -3 -4 4
3 6 2 13 -4 17 -5 3 -10 0 -10 -7 0 -10 -2 -10 -8 -1 -4 6 -25 13 -47 16 -26
3 -18 4 23 4 43 0 62 -4 62 -13z m55 9 c-11 -3 -25 -9 -31 -14 -7 -5 -11 -4
-11 4 0 8 13 13 31 14 19 1 23 -1 11 -4z m72 0 c-9 -2 -15 -8 -13 -11 2 -4 -8
-8 -22 -9 l-27 -1 25 14 c14 7 32 13 40 12 10 0 10 -2 -3 -5z m322 -6 c8 -11
6 -18 -8 -31 -16 -15 -19 -15 -24 -2 -4 10 -1 13 9 9 9 -3 14 0 12 8 -2 10
-31 15 -113 20 l-110 5 111 2 c83 1 114 -1 123 -11z m-66 -24 c-7 -3 -13 -9
-13 -15 0 -6 8 -7 17 -4 15 6 15 4 -2 -14 -21 -23 -26 -21 -29 12 -2 18 2 24
18 25 12 1 15 -1 9 -4z m-1728 -13 c13 -6 15 -9 5 -9 -8 0 -22 4 -30 9 -18 12
-2 12 25 0z m235 -16 c0 -2 -11 -4 -25 -4 -14 0 -25 4 -25 9 0 4 11 6 25 3 14
-2 25 -6 25 -8z m1520 -7 c0 -2 -10 -12 -22 -23 l-23 -19 19 23 c18 21 26 27
26 19z m-115 -27 c-3 -5 -1 -10 6 -10 7 0 10 -3 6 -6 -10 -10 -39 5 -32 16 3
5 11 10 16 10 6 0 7 -4 4 -10z m-1441 -21 c-4 -8 1 -9 17 -5 19 6 21 5 7 -4
-9 -5 -24 -7 -33 -4 -13 5 -14 8 -3 15 18 12 20 11 12 -2z m146 -8 c-8 -16 -6
-21 8 -24 9 -3 -4 -4 -29 -2 -26 1 -55 8 -65 15 -18 11 -18 11 -1 6 11 -3 31
-8 45 -11 26 -5 26 -5 -3 9 -16 9 -24 15 -17 16 7 0 22 -5 33 -10 15 -8 19 -7
19 5 0 8 5 15 10 15 7 0 7 -6 0 -19z m47 13 c-3 -3 -12 -4 -19 -1 -8 3 -5 6 6
6 11 1 17 -2 13 -5z m1036 -5 c7 0 -1 -5 -17 -9 -18 -6 -35 -5 -45 1 -12 8
-11 8 8 3 18 -4 22 -3 16 7 -6 9 -3 11 9 6 10 -4 23 -7 29 -8z m172 1 c-3 -5
-13 -10 -21 -10 -8 0 -14 5 -14 10 0 6 9 10 21 10 11 0 17 -4 14 -10z m-255
-20 c0 -5 -2 -10 -4 -10 -3 0 -8 5 -11 10 -3 6 -1 10 4 10 6 0 11 -4 11 -10z
m87 -6 c-3 -3 -12 -4 -19 -1 -8 3 -5 6 6 6 11 1 17 -2 13 -5z m-44 -11 c-7 -2
-19 -2 -25 0 -7 3 -2 5 12 5 14 0 19 -2 13 -5z m-53 -13 c0 -5 -4 -10 -10 -10
-5 0 -10 5 -10 10 0 6 5 10 10 10 6 0 10 -4 10 -10z m-393 -26 c-3 -3 -12 -4
-19 -1 -8 3 -5 6 6 6 11 1 17 -2 13 -5z m133 -18 l25 -14 -27 1 c-14 1 -24 5
-22 9 2 3 -4 9 -13 11 -13 3 -13 5 -3 5 8 1 26 -5 40 -12z m47 8 c-3 -3 -12
-4 -19 -1 -8 3 -5 6 6 6 11 1 17 -2 13 -5z m46 -1 c-7 -2 -19 -2 -25 0 -7 3
-2 5 12 5 14 0 19 -2 13 -5z m-443 -18 c11 -14 10 -14 -14 -5 -36 13 -70 13
-41 -1 19 -8 19 -9 1 -6 -11 1 -21 8 -24 15 -6 18 63 15 78 -3z m258 8 c-10
-2 -28 -2 -40 0 -13 2 -5 4 17 4 22 1 32 -1 23 -4z m47 -13 c-3 -5 -23 -9 -43
-9 l-37 1 30 8 c44 11 57 11 50 0z m-85 -14 c0 -2 -7 -6 -15 -10 -8 -3 -15 -1
-15 4 0 6 7 10 15 10 8 0 15 -2 15 -4z m-130 -16 c0 -5 -2 -10 -4 -10 -3 0 -8
5 -11 10 -3 6 -1 10 4 10 6 0 11 -4 11 -10z"/>
<path d="M1560 2425 c0 -8 -7 -15 -15 -15 -8 0 -15 5 -15 10 0 19 -21 10 -29
-12 -5 -13 -12 -23 -17 -23 -5 0 -8 -31 -8 -70 1 -38 3 -146 4 -240 2 -93 5
-160 7 -147 4 21 9 22 88 22 46 0 90 3 99 6 11 4 17 0 18 -12 4 -52 14 113 16
273 2 153 0 182 -11 177 -9 -3 -16 3 -20 15 -5 21 -27 30 -27 11 0 -5 -7 -10
-15 -10 -8 0 -15 7 -15 15 0 10 -10 15 -30 15 -20 0 -30 -5 -30 -15z m77 -87
c-3 -8 -6 -5 -6 6 -1 11 2 17 5 13 3 -3 4 -12 1 -19z m0 -130 c-3 -8 -6 -5 -6
6 -1 11 2 17 5 13 3 -3 4 -12 1 -19z"/>
<path d="M1720 2025 l0 -95 53 0 c28 0 65 -7 81 -15 15 -8 30 -15 32 -15 2 0
4 47 4 105 0 84 -3 105 -14 105 -8 0 -16 -6 -18 -12 -3 -9 -9 -8 -22 5 -20 20
-37 22 -54 5 -9 -9 -12 -9 -12 0 0 7 -11 12 -25 12 -25 0 -25 0 -25 -95z"/>
<path d="M181 1255 c4 -21 11 -23 694 -190 237 -58 452 -111 479 -117 37 -10
44 -14 30 -20 -23 -9 -595 -120 -599 -116 -1 2 -10 24 -20 50 -22 60 -90 124
-140 134 -20 3 -39 4 -42 0 -4 -3 2 -50 12 -104 11 -53 20 -101 20 -106 0 -5
-45 -21 -100 -36 -123 -32 -210 -69 -292 -122 -66 -42 -76 -64 -53 -109 17
-30 51 -23 121 29 35 26 92 61 124 78 69 37 214 80 225 67 4 -4 20 -46 35 -93
24 -73 49 -136 61 -149 9 -11 64 45 78 79 20 50 20 99 1 170 -8 30 -15 56 -15
56 0 1 17 4 38 7 20 3 182 37 359 75 l322 70 208 -49 c226 -54 505 -119 510
-119 2 0 3 -8 3 -18 0 -15 16 -22 80 -38 55 -13 79 -23 76 -31 -3 -7 -17 -52
-32 -100 -15 -49 -34 -96 -42 -105 -18 -21 -8 -51 15 -46 11 2 20 16 24 38 13
74 72 240 85 240 8 0 67 -11 131 -25 65 -14 183 -39 262 -55 83 -17 158 -39
177 -51 32 -20 36 -20 59 -5 28 19 34 66 11 85 -8 7 -38 12 -68 11 -37 -2
-126 17 -301 63 -137 36 -251 67 -253 69 -5 6 66 211 82 235 21 34 18 55 -8
51 -15 -2 -23 -10 -23 -23 -1 -11 -16 -68 -35 -127 -31 -94 -37 -106 -55 -102
-11 3 -31 6 -45 8 -14 2 -32 6 -40 9 -39 14 -61 14 -68 1 -7 -13 -50 -5 -273
46 -145 33 -273 64 -284 67 -18 6 -18 7 5 13 14 4 307 67 652 140 345 74 624
138 622 142 -3 5 -13 6 -22 4 -10 -3 -98 -21 -197 -40 -99 -19 -274 -53 -390
-76 -597 -117 -775 -150 -799 -150 -14 0 -85 14 -158 30 -73 17 -245 55 -383
85 -137 30 -279 62 -315 70 -363 83 -471 107 -509 112 -38 5 -43 4 -40 -12z"/>
<path d="M630 1104 c0 -4 58 -64 129 -134 l130 -128 38 9 c21 5 87 20 146 32
59 12 105 26 100 30 -4 5 0 5 10 1 9 -3 48 0 85 7 l67 12 -80 19 c-173 41
-453 112 -505 128 -68 21 -120 31 -120 24z m234 -73 c19 -7 19 -8 -2 -13 -12
-4 -20 -2 -16 3 3 5 0 9 -5 9 -6 0 -11 -5 -11 -12 0 -6 -3 -9 -6 -5 -7 7 4 27
14 26 4 0 16 -4 26 -8z m94 -26 c4 -4 -2 -5 -13 -3 -13 2 -19 -2 -17 -10 1 -8
-2 -11 -8 -7 -6 3 -8 11 -5 16 4 5 -1 9 -9 9 -21 0 -20 -9 2 -34 l17 -21 -25
20 c-14 11 -27 21 -30 23 -2 2 2 7 10 13 16 9 67 5 78 -6z m102 -30 c0 -12
-29 -3 -34 10 -4 13 -2 14 14 5 11 -6 20 -13 20 -15z m67 -11 c-3 -3 -12 -4
-19 -1 -8 3 -5 6 6 6 11 1 17 -2 13 -5z m66 -11 c-7 -2 -19 -2 -25 0 -7 3 -2
5 12 5 14 0 19 -2 13 -5z m-63 -10 c-14 -3 -32 -10 -40 -16 -13 -11 -13 -10
-1 6 7 9 25 16 40 16 l26 -2 -25 -4z m105 -3 c3 -5 1 -10 -4 -10 -6 0 -11 5
-11 10 0 6 2 10 4 10 3 0 8 -4 11 -10z m-90 -20 c3 -5 -1 -10 -9 -10 -9 0 -16
5 -16 10 0 6 4 10 9 10 6 0 13 -4 16 -10z m-185 -4 c0 -2 -7 -7 -16 -10 -8 -3
-12 -2 -9 4 6 10 25 14 25 6z m30 0 c0 -3 -4 -8 -10 -11 -5 -3 -10 -1 -10 4 0
6 5 11 10 11 6 0 10 -2 10 -4z m-15 -34 c-3 -3 -11 0 -18 7 -9 10 -8 11 6 5
10 -3 15 -9 12 -12z"/>
<path d="M2450 1093 c-58 -16 -511 -115 -620 -137 l-65 -13 91 -21 c100 -24
128 -27 105 -13 -8 5 -9 11 -3 15 6 3 13 -2 16 -12 4 -13 29 -22 93 -36 49
-11 93 -23 98 -27 6 -5 29 -11 50 -14 l40 -6 132 133 c73 73 136 136 140 141
9 10 -13 7 -77 -10z m-100 -53 c0 -17 -30 -24 -43 -10 -10 10 -7 11 12 5 16
-5 21 -4 17 4 -4 6 -2 11 3 11 6 0 11 -5 11 -10z m-80 -10 c0 -5 -7 -10 -16
-10 -8 0 -12 5 -9 10 3 6 10 10 16 10 5 0 9 -4 9 -10z m-50 -10 c-8 -5 -19
-10 -25 -10 -5 0 -3 5 5 10 8 5 20 10 25 10 6 0 3 -5 -5 -10z m96 -17 c-6 -6
-36 9 -36 18 0 5 9 4 20 -3 10 -7 18 -14 16 -15z m-141 7 c3 -5 2 -10 -4 -10
-5 0 -13 5 -16 10 -3 6 -2 10 4 10 5 0 13 -4 16 -10z m105 -20 c6 -11 9 -20 7
-20 -2 0 -12 9 -22 20 -10 11 -13 20 -7 20 6 0 16 -9 22 -20z m-250 -15 c-14
-8 -34 -14 -45 -14 -13 0 -7 5 15 13 47 18 61 18 30 1z m211 -48 c-10 -9 -11
-9 -6 4 4 10 0 19 -9 22 -9 4 -16 11 -16 17 0 6 10 2 22 -10 18 -16 19 -23 9
-33z m-291 33 c-8 -5 -25 -10 -37 -10 -12 0 -25 -4 -28 -10 -3 -5 -1 -10 6
-10 7 0 10 -2 7 -6 -3 -3 -21 2 -39 10 -19 9 -24 13 -11 10 13 -3 28 -1 35 4
12 10 41 19 67 21 13 1 13 0 0 -9z m43 -17 c-7 -2 -19 -2 -25 0 -7 3 -2 5 12
5 14 0 19 -2 13 -5z m-56 -9 c-3 -3 -12 -4 -19 -1 -8 3 -5 6 6 6 11 1 17 -2
13 -5z m78 -32 c-3 -3 -11 0 -18 7 -9 10 -8 11 6 5 10 -3 15 -9 12 -12z m155
-3 c11 -7 4 -8 -25 -4 l-40 6 30 -15 c28 -14 28 -15 5 -11 -44 6 -63 17 -48
26 18 12 60 11 78 -2z"/>
<path d="M1489 886 c-8 -8 -398 -90 -476 -101 -29 -4 -53 -9 -53 -11 0 -5 610
-609 619 -612 4 -1 39 30 78 70 39 40 168 169 287 287 118 118 213 218 210
222 -2 4 -26 11 -52 14 -43 6 -460 102 -543 125 -38 11 -63 13 -70 6z m28 -25
c14 5 28 7 31 4 3 -3 -1 -5 -9 -5 -10 0 -11 -2 -2 -8 6 -4 -8 -7 -31 -8 -33 0
-41 3 -32 12 6 7 12 8 14 4 2 -5 15 -5 29 1z m-70 -17 c-3 -3 -12 -4 -19 -1
-8 3 -5 6 6 6 11 1 17 -2 13 -5z m-132 -24 c-3 -5 -11 -10 -16 -10 -6 0 -7 5
-4 10 3 6 11 10 16 10 6 0 7 -4 4 -10z m-71 -14 c-3 -8 -12 -17 -20 -20 -12
-4 -12 -2 -4 14 12 23 32 27 24 6z m576 -6 c34 -11 66 -17 71 -14 5 3 6 -2 3
-10 -4 -11 -11 -12 -22 -6 -10 5 -41 16 -71 25 -42 12 -57 12 -62 3 -4 -7 -5
-16 -3 -20 3 -4 -2 -8 -10 -8 -20 0 -20 5 1 30 21 24 17 24 93 0z m-640 -10
c-34 -11 -60 -11 -35 0 11 5 29 8 40 8 16 0 15 -2 -5 -8z m-55 -14 c8 -7 12
-16 9 -18 -2 -3 5 -13 16 -23 20 -18 27 -45 12 -45 -4 0 -28 21 -52 46 -25 26
-39 43 -31 39 8 -5 28 -24 44 -42 16 -19 32 -31 35 -28 3 3 -3 15 -14 28 -33
37 -47 57 -40 57 4 0 14 -6 21 -14z m670 4 c13 -5 14 -9 5 -9 -8 0 -24 4 -35
9 -13 5 -14 9 -5 9 8 0 24 -4 35 -9z m-618 -11 c-9 -6 -14 -15 -11 -21 4 -7 2
-8 -5 -4 -14 9 3 36 23 36 6 0 3 -5 -7 -11z m773 1 c13 -8 13 -10 -2 -10 -9 0
-20 5 -23 10 -8 13 5 13 25 0z m49 -16 c7 4 9 1 5 -8 -10 -26 -29 -25 -31 2
-1 16 2 20 7 12 4 -7 13 -10 19 -6z m41 2 c0 -2 -7 -9 -15 -16 -13 -11 -14
-10 -9 4 5 14 24 23 24 12z m-15 -46 c-3 -5 -12 -10 -18 -10 -7 0 -6 4 3 10
19 12 23 12 15 0z m-778 -35 c0 -8 -4 -12 -9 -9 -4 3 -8 1 -8 -5 0 -5 5 -13
10 -16 6 -3 10 -11 10 -17 0 -5 -8 0 -19 13 -14 17 -15 26 -7 36 15 17 23 16
23 -2z m696 -17 c-9 -10 -21 -18 -27 -17 -6 0 -6 3 2 6 6 2 12 9 12 15 0 6 -7
8 -15 5 -8 -4 -17 -3 -19 2 -3 4 10 7 29 7 32 -1 33 -2 18 -18z m-98 -88 c4 0
5 6 2 13 -3 7 3 13 14 13 17 0 17 -2 2 -18 -9 -11 -22 -17 -29 -14 -7 3 -15 0
-17 -7 -2 -7 -4 0 -3 16 1 22 3 25 12 12 6 -8 15 -15 19 -15z m-525 5 c19 -23
8 -25 -14 -4 -11 11 -15 19 -9 19 6 0 16 -7 23 -15z m520 -49 c0 -2 -8 -10
-17 -17 -16 -13 -17 -12 -4 4 13 16 21 21 21 13z m-434 -17 c3 -6 1 -16 -5
-22 -9 -9 -10 -7 -5 7 6 16 4 18 -10 13 -10 -4 -15 -3 -11 3 8 13 22 13 31 -1z
m351 -30 c-9 -6 -17 -15 -17 -21 0 -7 5 -6 15 2 9 7 15 8 15 2 0 -14 -28 -23
-36 -11 -7 12 26 52 35 43 3 -3 -2 -10 -12 -15z m-274 -108 c-5 -7 -81 64 -82
76 -1 7 18 -7 42 -30 23 -23 41 -44 40 -46z m252 49 c-3 -5 -13 -6 -21 -3 -12
4 -13 8 -3 14 15 9 32 2 24 -11z m-45 -10 c0 -3 -8 -10 -18 -16 -14 -9 -18 -8
-18 5 0 9 8 17 18 17 10 0 18 -3 18 -6z m-19 -53 c-13 -12 -20 -15 -16 -7 14
26 28 41 33 35 3 -3 -5 -16 -17 -28z m-97 8 c4 -11 13 -14 31 -9 30 7 32 -6 5
-31 -12 -10 -18 -25 -16 -32 3 -7 0 -15 -6 -19 -7 -5 -8 -2 -3 6 6 10 4 12 -8
7 -9 -3 -21 1 -29 11 -12 15 -11 16 4 4 11 -9 18 -10 23 -2 8 13 -3 32 -15 25
-5 -3 -12 0 -16 6 -4 8 -3 9 5 5 8 -6 10 0 5 18 -7 28 10 37 20 11z m-48 -25
c0 -12 -4 -16 -9 -11 -5 5 -6 14 -3 20 10 15 12 14 12 -9z"/>
<path d="M1571 343 c16 -27 25 -29 33 -7 3 9 2 12 -5 9 -5 -4 -17 -1 -26 7
-15 12 -15 11 -2 -9z"/>
</g>
</svg>
